<mxfile host="app.diagrams.net" modified="2021-12-16T12:26:18.382Z" agent="5.0 (Macintosh; Intel Mac OS X 10_14_6) AppleWebKit/537.36 (KHTML, like Gecko) Chrome/95.0.4638.69 Safari/537.36" etag="ikmyRyGmgKvKIKqzEjW-" version="15.9.4" type="github">
  <diagram id="C5RBs43oDa-KdzZeNtuy" name="Page-1">
    <mxGraphModel dx="1426" dy="764" grid="0" gridSize="10" guides="1" tooltips="1" connect="1" arrows="1" fold="1" page="1" pageScale="1" pageWidth="827" pageHeight="1169" math="0" shadow="0">
      <root>
        <mxCell id="WIyWlLk6GJQsqaUBKTNV-0" />
        <mxCell id="WIyWlLk6GJQsqaUBKTNV-1" parent="WIyWlLk6GJQsqaUBKTNV-0" />
        <mxCell id="4HTtjbrbwFIGZN_ZrTu4-5" value="" style="edgeStyle=orthogonalEdgeStyle;rounded=0;orthogonalLoop=1;jettySize=auto;html=1;fontColor=#000000;" edge="1" parent="WIyWlLk6GJQsqaUBKTNV-1" source="WIyWlLk6GJQsqaUBKTNV-3" target="4HTtjbrbwFIGZN_ZrTu4-4">
          <mxGeometry relative="1" as="geometry" />
        </mxCell>
        <mxCell id="4HTtjbrbwFIGZN_ZrTu4-14" value="" style="edgeStyle=orthogonalEdgeStyle;rounded=0;orthogonalLoop=1;jettySize=auto;html=1;fontColor=#000000;" edge="1" parent="WIyWlLk6GJQsqaUBKTNV-1" source="WIyWlLk6GJQsqaUBKTNV-3" target="4HTtjbrbwFIGZN_ZrTu4-13">
          <mxGeometry relative="1" as="geometry" />
        </mxCell>
        <mxCell id="WIyWlLk6GJQsqaUBKTNV-3" value="&lt;pre style=&quot;font-family: &amp;#34;jetbrains mono&amp;#34; ; font-size: 10.5pt&quot;&gt;&lt;span style=&quot;background-color: rgb(151 , 208 , 119)&quot;&gt;tcp_connect&lt;/span&gt;&lt;/pre&gt;" style="rounded=1;whiteSpace=wrap;html=1;fontSize=12;glass=0;strokeWidth=1;shadow=0;fillColor=#97D077;" parent="WIyWlLk6GJQsqaUBKTNV-1" vertex="1">
          <mxGeometry x="235" y="19" width="120" height="40" as="geometry" />
        </mxCell>
        <mxCell id="WIyWlLk6GJQsqaUBKTNV-7" value="&lt;pre style=&quot;font-family: &amp;#34;jetbrains mono&amp;#34; ; font-size: 10.5pt&quot;&gt;&lt;span style=&quot;background-color: rgb(255 , 102 , 102)&quot;&gt;tcp_transmit_skb&lt;/span&gt;&lt;/pre&gt;" style="rounded=1;whiteSpace=wrap;html=1;fontSize=12;glass=0;strokeWidth=1;shadow=0;fillColor=#FF6666;arcSize=0;" parent="WIyWlLk6GJQsqaUBKTNV-1" vertex="1">
          <mxGeometry x="338" y="200" width="120" height="40" as="geometry" />
        </mxCell>
        <mxCell id="4HTtjbrbwFIGZN_ZrTu4-3" value="" style="edgeStyle=orthogonalEdgeStyle;rounded=0;orthogonalLoop=1;jettySize=auto;html=1;fontColor=#000000;" edge="1" parent="WIyWlLk6GJQsqaUBKTNV-1" source="WIyWlLk6GJQsqaUBKTNV-11" target="4HTtjbrbwFIGZN_ZrTu4-2">
          <mxGeometry relative="1" as="geometry" />
        </mxCell>
        <mxCell id="WIyWlLk6GJQsqaUBKTNV-11" value="&lt;pre style=&quot;font-family: &amp;#34;jetbrains mono&amp;#34; ; font-size: 10.5pt&quot;&gt;&lt;span style=&quot;background-color: rgb(255 , 102 , 102)&quot;&gt;tcp_send_syn_data&lt;/span&gt;&lt;/pre&gt;" style="rounded=1;whiteSpace=wrap;html=1;fontSize=12;glass=0;strokeWidth=1;shadow=0;fillColor=#FF6666;strokeColor=#FF6666;" parent="WIyWlLk6GJQsqaUBKTNV-1" vertex="1">
          <mxGeometry x="128" y="306" width="172" height="40" as="geometry" />
        </mxCell>
        <mxCell id="4HTtjbrbwFIGZN_ZrTu4-12" value="" style="edgeStyle=orthogonalEdgeStyle;rounded=0;orthogonalLoop=1;jettySize=auto;html=1;fontColor=#000000;entryX=0.433;entryY=1.025;entryDx=0;entryDy=0;entryPerimeter=0;" edge="1" parent="WIyWlLk6GJQsqaUBKTNV-1" source="4HTtjbrbwFIGZN_ZrTu4-2" target="WIyWlLk6GJQsqaUBKTNV-7">
          <mxGeometry relative="1" as="geometry">
            <mxPoint x="486" y="399" as="targetPoint" />
          </mxGeometry>
        </mxCell>
        <mxCell id="4HTtjbrbwFIGZN_ZrTu4-28" value="N" style="edgeLabel;html=1;align=center;verticalAlign=middle;resizable=0;points=[];fontColor=#000000;" vertex="1" connectable="0" parent="4HTtjbrbwFIGZN_ZrTu4-12">
          <mxGeometry x="-0.454" y="-3" relative="1" as="geometry">
            <mxPoint as="offset" />
          </mxGeometry>
        </mxCell>
        <mxCell id="4HTtjbrbwFIGZN_ZrTu4-16" value="" style="edgeStyle=orthogonalEdgeStyle;rounded=0;orthogonalLoop=1;jettySize=auto;html=1;fontColor=#000000;" edge="1" parent="WIyWlLk6GJQsqaUBKTNV-1" source="4HTtjbrbwFIGZN_ZrTu4-2" target="4HTtjbrbwFIGZN_ZrTu4-15">
          <mxGeometry relative="1" as="geometry" />
        </mxCell>
        <mxCell id="4HTtjbrbwFIGZN_ZrTu4-27" value="Y" style="edgeLabel;html=1;align=center;verticalAlign=middle;resizable=0;points=[];fontColor=#000000;" vertex="1" connectable="0" parent="4HTtjbrbwFIGZN_ZrTu4-16">
          <mxGeometry x="-0.122" y="-2" relative="1" as="geometry">
            <mxPoint as="offset" />
          </mxGeometry>
        </mxCell>
        <mxCell id="4HTtjbrbwFIGZN_ZrTu4-2" value="cookie found?" style="rhombus;whiteSpace=wrap;html=1;fillColor=#97D077;rounded=1;glass=0;strokeWidth=1;shadow=0;" vertex="1" parent="WIyWlLk6GJQsqaUBKTNV-1">
          <mxGeometry x="174" y="391" width="80" height="80" as="geometry" />
        </mxCell>
        <mxCell id="4HTtjbrbwFIGZN_ZrTu4-9" value="Y" style="edgeStyle=orthogonalEdgeStyle;rounded=0;orthogonalLoop=1;jettySize=auto;html=1;fontColor=#000000;" edge="1" parent="WIyWlLk6GJQsqaUBKTNV-1" source="4HTtjbrbwFIGZN_ZrTu4-4" target="WIyWlLk6GJQsqaUBKTNV-11">
          <mxGeometry relative="1" as="geometry" />
        </mxCell>
        <mxCell id="4HTtjbrbwFIGZN_ZrTu4-10" value="" style="edgeStyle=orthogonalEdgeStyle;rounded=0;orthogonalLoop=1;jettySize=auto;html=1;fontColor=#000000;" edge="1" parent="WIyWlLk6GJQsqaUBKTNV-1" source="4HTtjbrbwFIGZN_ZrTu4-4" target="WIyWlLk6GJQsqaUBKTNV-7">
          <mxGeometry relative="1" as="geometry" />
        </mxCell>
        <mxCell id="4HTtjbrbwFIGZN_ZrTu4-26" value="&amp;nbsp; &amp;nbsp;N" style="edgeLabel;html=1;align=center;verticalAlign=middle;resizable=0;points=[];fontColor=#000000;" vertex="1" connectable="0" parent="4HTtjbrbwFIGZN_ZrTu4-10">
          <mxGeometry x="-0.4824" y="2" relative="1" as="geometry">
            <mxPoint as="offset" />
          </mxGeometry>
        </mxCell>
        <mxCell id="4HTtjbrbwFIGZN_ZrTu4-4" value="fast_open?" style="rhombus;whiteSpace=wrap;html=1;fillColor=#97D077;rounded=1;glass=0;strokeWidth=1;shadow=0;" vertex="1" parent="WIyWlLk6GJQsqaUBKTNV-1">
          <mxGeometry x="173" y="180" width="80" height="80" as="geometry" />
        </mxCell>
        <mxCell id="4HTtjbrbwFIGZN_ZrTu4-13" value="&lt;pre style=&quot;font-family: &amp;#34;jetbrains mono&amp;#34; ; font-size: 10.5pt&quot;&gt;&lt;pre style=&quot;font-family: &amp;#34;jetbrains mono&amp;#34; ; font-size: 10.5pt&quot;&gt;&lt;font style=&quot;background-color: rgb(151 , 208 , 119)&quot;&gt;tcp_rbtree_insert(syn)&lt;/font&gt;&lt;/pre&gt;&lt;/pre&gt;" style="rounded=1;whiteSpace=wrap;html=1;fontSize=12;glass=0;strokeWidth=1;shadow=0;fillColor=#97D077;" vertex="1" parent="WIyWlLk6GJQsqaUBKTNV-1">
          <mxGeometry x="322" y="99" width="191" height="40" as="geometry" />
        </mxCell>
        <mxCell id="4HTtjbrbwFIGZN_ZrTu4-18" value="" style="edgeStyle=orthogonalEdgeStyle;rounded=0;orthogonalLoop=1;jettySize=auto;html=1;fontColor=#000000;entryX=1;entryY=0.5;entryDx=0;entryDy=0;" edge="1" parent="WIyWlLk6GJQsqaUBKTNV-1" source="4HTtjbrbwFIGZN_ZrTu4-15" target="4HTtjbrbwFIGZN_ZrTu4-13">
          <mxGeometry relative="1" as="geometry">
            <mxPoint x="353" y="540" as="targetPoint" />
          </mxGeometry>
        </mxCell>
        <mxCell id="4HTtjbrbwFIGZN_ZrTu4-22" value="" style="edgeStyle=orthogonalEdgeStyle;rounded=0;orthogonalLoop=1;jettySize=auto;html=1;fontColor=#000000;" edge="1" parent="WIyWlLk6GJQsqaUBKTNV-1" source="4HTtjbrbwFIGZN_ZrTu4-15" target="4HTtjbrbwFIGZN_ZrTu4-21">
          <mxGeometry relative="1" as="geometry" />
        </mxCell>
        <mxCell id="4HTtjbrbwFIGZN_ZrTu4-15" value="copy syn and data" style="whiteSpace=wrap;html=1;fillColor=#97D077;rounded=1;glass=0;strokeWidth=1;shadow=0;" vertex="1" parent="WIyWlLk6GJQsqaUBKTNV-1">
          <mxGeometry x="153" y="521" width="120" height="42" as="geometry" />
        </mxCell>
        <mxCell id="4HTtjbrbwFIGZN_ZrTu4-24" value="" style="edgeStyle=orthogonalEdgeStyle;rounded=0;orthogonalLoop=1;jettySize=auto;html=1;fontColor=#000000;" edge="1" parent="WIyWlLk6GJQsqaUBKTNV-1" source="4HTtjbrbwFIGZN_ZrTu4-21" target="4HTtjbrbwFIGZN_ZrTu4-23">
          <mxGeometry relative="1" as="geometry" />
        </mxCell>
        <mxCell id="4HTtjbrbwFIGZN_ZrTu4-25" value="Y" style="edgeLabel;html=1;align=center;verticalAlign=middle;resizable=0;points=[];fontColor=#000000;" vertex="1" connectable="0" parent="4HTtjbrbwFIGZN_ZrTu4-24">
          <mxGeometry x="-0.3556" y="4" relative="1" as="geometry">
            <mxPoint as="offset" />
          </mxGeometry>
        </mxCell>
        <mxCell id="4HTtjbrbwFIGZN_ZrTu4-30" value="" style="edgeStyle=orthogonalEdgeStyle;rounded=0;orthogonalLoop=1;jettySize=auto;html=1;fontColor=#000000;" edge="1" parent="WIyWlLk6GJQsqaUBKTNV-1" source="4HTtjbrbwFIGZN_ZrTu4-21" target="4HTtjbrbwFIGZN_ZrTu4-29">
          <mxGeometry relative="1" as="geometry" />
        </mxCell>
        <mxCell id="4HTtjbrbwFIGZN_ZrTu4-31" value="N" style="edgeLabel;html=1;align=center;verticalAlign=middle;resizable=0;points=[];fontColor=#000000;" vertex="1" connectable="0" parent="4HTtjbrbwFIGZN_ZrTu4-30">
          <mxGeometry x="-0.3007" relative="1" as="geometry">
            <mxPoint as="offset" />
          </mxGeometry>
        </mxCell>
        <mxCell id="4HTtjbrbwFIGZN_ZrTu4-21" value="tranmit success" style="rhombus;whiteSpace=wrap;html=1;fillColor=#97D077;rounded=1;glass=0;strokeWidth=1;shadow=0;" vertex="1" parent="WIyWlLk6GJQsqaUBKTNV-1">
          <mxGeometry x="173" y="640" width="80" height="80" as="geometry" />
        </mxCell>
        <mxCell id="4HTtjbrbwFIGZN_ZrTu4-23" value="&lt;pre style=&quot;font-family: &amp;#34;jetbrains mono&amp;#34; ; font-size: 10.5pt&quot;&gt;&lt;pre style=&quot;font-family: &amp;#34;jetbrains mono&amp;#34; ; font-size: 10.5pt&quot;&gt;&lt;span style=&quot;background-color: rgb(151 , 208 , 119)&quot;&gt;&lt;font color=&quot;#ff3333&quot;&gt;tcp_rbtree_insert&lt;/font&gt;&lt;/span&gt;&lt;/pre&gt;&lt;/pre&gt;" style="whiteSpace=wrap;html=1;fillColor=#97D077;rounded=1;glass=0;strokeWidth=1;shadow=0;" vertex="1" parent="WIyWlLk6GJQsqaUBKTNV-1">
          <mxGeometry x="153" y="801" width="120" height="39" as="geometry" />
        </mxCell>
        <mxCell id="4HTtjbrbwFIGZN_ZrTu4-29" value="&lt;pre style=&quot;font-family: &amp;#34;jetbrains mono&amp;#34; ; font-size: 10.5pt&quot;&gt;&lt;span style=&quot;background-color: rgb(151 , 208 , 119)&quot;&gt;__skb_queue_tail（&lt;font color=&quot;#ff3333&quot;&gt;sk_write_queue&lt;/font&gt;）&lt;/span&gt;&lt;/pre&gt;" style="whiteSpace=wrap;html=1;fillColor=#97D077;rounded=1;glass=0;strokeWidth=1;shadow=0;" vertex="1" parent="WIyWlLk6GJQsqaUBKTNV-1">
          <mxGeometry x="323" y="661" width="261" height="37" as="geometry" />
        </mxCell>
      </root>
    </mxGraphModel>
  </diagram>
</mxfile>
